<?xml version="1.0" standalone="no"?>
<!DOCTYPE svg PUBLIC "-//W3C//DTD SVG 20010904//EN"
 "http://www.w3.org/TR/2001/REC-SVG-20010904/DTD/svg10.dtd">
<svg version="1.0" xmlns="http://www.w3.org/2000/svg"
 width="424.000000pt" height="235.000000pt" viewBox="0 0 424.000000 235.000000"
 preserveAspectRatio="xMidYMid meet">

<g transform="translate(0.000000,235.000000) scale(0.100000,-0.100000)"
fill="#000000" stroke="none">
<path d="M2052 1384 c-21 -15 -22 -20 -22 -208 0 -216 1 -220 67 -214 l38 3 3
204 c2 142 -1 208 -9 217 -15 18 -49 18 -77 -2z"/>
<path d="M1854 1248 c-24 -11 -34 -64 -34 -173 1 -100 7 -115 43 -115 58 0 60
6 58 141 -1 67 -4 126 -7 131 -11 18 -40 25 -60 16z"/>
<path d="M2257 1232 c-15 -17 -17 -37 -15 -143 l3 -124 40 -3 c29 -3 43 1 52
14 17 24 17 210 0 244 -16 32 -57 38 -80 12z"/>
<path d="M1416 1075 c-3 -8 -6 -176 -6 -372 -1 -284 1 -358 12 -364 21 -13 64
-10 77 5 15 18 16 699 0 727 -12 24 -74 27 -83 4z"/>
<path d="M2666 1068 c-3 -13 -6 -179 -6 -369 0 -378 -1 -374 57 -367 49 5 51
23 53 380 1 289 -1 331 -16 353 -22 34 -79 36 -88 3z"/>
<path d="M1624 1016 c-13 -22 -15 -65 -14 -322 0 -205 4 -302 12 -311 7 -9 26
-13 47 -11 45 4 48 16 50 188 1 136 -9 199 -33 212 -23 13 -21 64 3 71 24 6
35 66 25 132 -5 37 -12 48 -31 56 -35 13 -41 12 -59 -15z"/>
<path d="M2472 1024 c-19 -13 -22 -25 -22 -78 0 -56 3 -65 30 -91 17 -16 30
-34 30 -39 0 -6 -14 -29 -30 -50 l-30 -40 0 -162 c0 -176 5 -194 55 -194 54 0
55 6 55 333 0 166 -4 307 -8 313 -13 20 -57 24 -80 8z"/>
<path d="M1210 920 c-12 -7 -16 -42 -18 -187 -4 -212 3 -254 41 -267 21 -8 31
-6 47 9 19 17 20 30 20 219 -1 216 -5 236 -51 236 -13 0 -31 -5 -39 -10z"/>
<path d="M2881 912 c-5 -10 -11 -108 -12 -218 l-1 -199 25 -18 c29 -22 61 -11
73 25 12 35 6 385 -6 408 -14 26 -65 27 -79 2z"/>
<path d="M1957 894 c-27 -91 -14 -160 40 -201 66 -51 80 -68 87 -99 8 -36 -16
-69 -63 -85 -17 -6 -31 -15 -31 -20 0 -13 66 -22 107 -14 88 16 113 42 146
153 l15 52 -28 0 c-19 0 -29 -6 -33 -20 -8 -31 -25 -23 -33 15 -4 21 -19 47
-36 63 -41 37 -122 122 -146 151 -18 24 -20 24 -25 5z"/>
<path d="M1076 815 c-12 -18 -16 -49 -16 -120 0 -112 9 -135 50 -135 47 0 60
30 60 140 0 70 -4 101 -16 118 -20 29 -58 28 -78 -3z"/>
<path d="M3017 820 c-13 -16 -17 -40 -17 -113 0 -109 13 -147 51 -147 43 0 49
16 49 132 0 88 -3 112 -17 128 -10 11 -24 20 -33 20 -9 0 -23 -9 -33 -20z"/>
<path d="M1826 368 c3 -110 9 -187 16 -195 13 -16 38 -16 61 1 15 11 17 32 17
156 l0 142 -31 39 c-17 21 -39 39 -49 39 -18 0 -18 -10 -14 -182z"/>
<path d="M2285 514 c-16 -20 -33 -43 -37 -52 -4 -9 -7 -76 -7 -148 -1 -128 0
-131 23 -143 31 -17 65 -6 77 26 10 27 13 273 3 322 -8 40 -22 39 -59 -5z"/>
<path d="M2115 280 c-4 -6 -23 -9 -43 -8 l-37 3 -3 -107 c-3 -104 -2 -106 24
-127 25 -20 28 -20 55 -4 l29 17 0 118 c0 108 -7 137 -25 108z"/>
</g>
</svg>
